<?xml version="1.0" standalone="no"?>
<!DOCTYPE svg PUBLIC "-//W3C//DTD SVG 20010904//EN"
 "http://www.w3.org/TR/2001/REC-SVG-20010904/DTD/svg10.dtd">
<svg version="1.0" xmlns="http://www.w3.org/2000/svg"
 width="260.000000pt" height="260.000000pt" viewBox="0 0 260.000000 260.000000"
 preserveAspectRatio="xMidYMid meet">
<metadata>
Created by potrace 1.14, written by Peter Selinger 2001-2017
</metadata>
<g transform="translate(0.000000,260.000000) scale(0.100000,-0.100000)"
fill="#000000" stroke="none">
<path d="M549 2357 c-59 -31 -106 -101 -114 -170 -3 -28 -5 -448 -3 -932 l3
-880 28 -48 c15 -26 47 -60 69 -75 l42 -27 726 0 726 0 42 27 c22 15 54 49 69
75 l28 48 3 680 3 680 -326 323 -325 322 -463 0 -464 0 -44 -23z m861 -462 l0
-275 270 0 270 0 0 -595 0 -595 -650 0 -650 0 0 870 0 870 380 0 380 0 0 -275z"/>
<path d="M937 1082 l-177 -177 179 -179 c202 -202 181 -193 268 -104 l53 53
-110 110 c-61 60 -110 114 -110 120 0 5 50 60 111 121 l110 111 -69 61 c-38
34 -71 62 -73 62 -3 0 -84 -80 -182 -178z"/>
<path d="M1410 1195 l-65 -65 113 -113 112 -112 -115 -115 -115 -116 71 -63
71 -64 179 179 179 179 -177 177 c-98 98 -180 178 -183 178 -3 0 -35 -29 -70
-65z"/>
</g>
</svg>
